<svg version="1.1" id="Layer_1" xmlns="http://www.w3.org/2000/svg" xmlns:xlink="http://www.w3.org/1999/xlink" x="0px" y="0px"
	 width="100%" viewBox="0 0 586 198" enable-background="new 0 0 586 198" xml:space="preserve">
<path fill="#FFFEFF" opacity="1.000000" stroke="none" 
	d="
M490.000000,0.999997 
	C522.297852,1.000000 554.595703,1.000000 586.946777,1.000000 
	C586.946777,66.892067 586.946777,132.784195 586.946777,199.000000 
	C552.646423,199.000000 518.291870,199.000000 483.460510,198.781921 
	C482.983734,198.563843 482.958801,198.128082 483.384033,198.055038 
	C490.234222,196.720337 496.659149,195.458679 503.467285,194.170105 
	C510.264465,191.177200 516.678467,188.211243 523.393311,185.062714 
	C532.580688,179.858414 540.239990,173.427185 546.591553,164.988586 
	C550.075745,160.219589 553.674805,155.864243 556.433289,151.029358 
	C568.307434,130.216980 572.188660,107.786873 568.895874,84.146614 
	C566.151001,64.440231 558.065369,47.090790 544.842957,31.781433 
	C537.508301,25.567135 530.300476,19.664354 522.890381,13.493141 
	C515.458862,10.207010 508.229584,7.189313 500.633362,4.038301 
	C496.844299,2.936655 493.422150,1.968325 490.000000,0.999997 
z"/>
<path fill="#C26AD9" opacity="1.000000" stroke="none" 
	d="
M363.000000,1.000000 
	C369.354401,1.000000 375.708801,1.000000 382.531616,1.468657 
	C383.052399,28.733677 383.104828,55.530037 383.141907,82.765106 
	C383.136627,94.358772 383.146729,105.513733 383.111206,117.156181 
	C383.042389,144.362457 383.019165,171.081253 382.531616,197.863556 
	C373.376740,197.885422 364.686218,197.843765 355.984314,197.391388 
	C355.648651,194.206863 355.052551,191.434021 355.042969,188.659119 
	C354.966034,166.428131 355.052094,144.196381 354.898071,121.966179 
	C354.886139,120.243393 353.427002,118.530640 352.785828,116.379349 
	C353.122467,106.929184 353.313782,97.912903 353.840149,88.828918 
	C354.479401,88.435272 354.783539,88.109322 355.520203,87.726883 
	C358.183136,87.670387 360.413544,87.670387 362.932922,87.670387 
	C362.932922,85.382401 362.932922,83.778137 362.953308,81.694717 
	C362.982452,54.477047 362.991241,27.738523 363.000000,1.000000 
z"/>
<path fill="#B96ADC" opacity="1.000000" stroke="none" 
	d="
M352.640503,116.813232 
	C353.427002,118.530640 354.886139,120.243393 354.898071,121.966179 
	C355.052094,144.196381 354.966034,166.428131 355.042969,188.659119 
	C355.052551,191.434021 355.648651,194.206863 355.519714,197.455902 
	C347.043701,197.886917 339.021027,197.842682 330.985931,197.391113 
	C330.649017,194.206161 330.051422,191.429413 330.042847,188.650833 
	C329.968872,164.730286 330.001221,140.809402 330.363312,116.848846 
	C331.657501,116.692398 332.590240,116.575722 334.105713,116.386139 
	C331.511230,111.734077 329.141541,107.485100 326.830322,103.340919 
	C334.707733,95.741859 335.057495,91.542114 329.055664,83.862503 
	C329.597290,81.806572 329.971375,80.021980 329.974030,78.236855 
	C330.011963,52.491280 330.000000,26.745630 330.000000,1.000000 
	C335.688049,1.000000 341.376068,1.000000 347.532043,1.468657 
	C348.000000,26.000559 347.969513,50.063896 348.043823,74.126907 
	C348.051880,76.734879 348.666321,79.340973 348.543579,82.006531 
	C344.967102,82.065125 341.846527,82.065125 338.384796,82.065125 
	C337.398560,90.990105 344.918121,85.739334 348.027893,89.145943 
	C348.027893,97.643990 348.027893,107.034836 348.027893,116.489601 
	C350.001221,116.628052 351.320862,116.720642 352.640503,116.813232 
z"/>
<path fill="#8A6DEC" opacity="1.000000" stroke="none" 
	d="
M179.000000,1.000000 
	C185.021149,1.000000 191.042297,1.000000 197.531723,1.468657 
	C198.000000,48.625969 198.000000,95.314629 198.000000,142.003281 
	C198.000000,156.318878 197.925125,170.635101 198.045715,184.949692 
	C198.081818,189.233414 198.664032,193.512558 198.532013,197.861374 
	C191.711197,197.883728 185.354431,197.838501 178.996277,197.380066 
	C178.663254,192.039551 178.067993,187.113449 178.045227,182.184708 
	C177.941925,159.807922 178.053848,137.430038 177.909134,115.053711 
	C177.895966,113.019333 176.607407,110.993202 175.954742,108.499084 
	C175.968674,102.031288 175.938965,96.027657 176.303101,89.940323 
	C177.464630,85.443413 178.858948,81.035515 178.896378,76.616112 
	C179.109848,51.412258 178.999985,26.205664 179.000000,1.000000 
z"/>
<path fill="#DC68D0" opacity="1.000000" stroke="none" 
	d="
M444.000000,1.000000 
	C450.354401,1.000000 456.708801,1.000000 463.530212,1.428962 
	C463.664825,7.300089 463.091492,12.740085 463.042480,18.184801 
	C462.849396,39.628109 462.821106,61.072895 462.349670,82.383072 
	C460.406433,82.249016 458.845184,82.249016 456.640778,82.249016 
	C460.292145,93.988396 463.709717,104.976074 466.727234,116.050125 
	C465.884796,117.602615 465.101227,119.059395 465.060791,120.536530 
	C464.909058,126.077759 465.000275,131.625641 465.000000,137.171036 
	C464.998993,157.382416 464.997803,177.593811 464.532288,197.867920 
	C457.378662,197.887970 450.689392,197.845291 444.000061,197.349670 
	C443.960754,169.801926 443.921509,142.707123 444.114868,115.395203 
	C446.931824,112.090096 450.462799,109.390167 451.918396,105.839462 
	C455.869232,96.201721 452.063873,88.162697 442.016418,81.951164 
	C442.557617,79.416634 442.941162,77.082703 442.976685,74.743500 
	C443.349731,50.162815 443.667175,25.581291 444.000000,1.000000 
z"/>
<path fill="#906DEA" opacity="1.000000" stroke="none" 
	d="
M198.996048,197.793793 
	C198.664032,193.512558 198.081818,189.233414 198.045715,184.949692 
	C197.925125,170.635101 198.000000,156.318878 198.000000,142.003281 
	C198.000000,95.314629 198.000000,48.625969 198.000000,1.468657 
	C203.688034,1.000000 209.376083,1.000000 215.532059,1.468657 
	C216.000000,26.890543 215.940445,51.844166 216.105881,76.796288 
	C216.120117,78.939835 217.626709,81.073486 218.200745,83.483154 
	C212.516052,88.986542 212.343842,92.065704 217.012604,100.221619 
	C216.949966,102.821503 216.936111,105.047707 216.581055,107.163803 
	C214.816193,107.996292 213.392517,108.938889 211.181381,110.402863 
	C214.411987,112.791092 216.703766,114.485298 218.934265,116.577332 
	C218.581970,123.010689 218.070297,129.045105 218.039993,135.081940 
	C217.934982,155.993927 217.997375,176.906754 217.532730,197.888580 
	C211.044952,197.903183 205.020493,197.848480 198.996048,197.793793 
z"/>
<path fill="#D069D4" opacity="1.000000" stroke="none" 
	d="
M406.000000,1.000000 
	C412.021149,1.000000 418.042297,1.000000 424.531738,1.468657 
	C425.000000,26.520023 424.930908,51.103191 425.095154,75.684814 
	C425.113831,78.478485 426.443420,81.263405 426.956116,84.324051 
	C416.715302,92.890900 416.863159,104.623344 427.054626,115.072044 
	C426.655762,117.958832 426.049896,120.407379 426.042908,122.857635 
	C425.971497,147.838730 425.997589,172.820084 425.532104,197.864685 
	C418.378174,197.886124 411.688507,197.844254 404.999268,197.349396 
	C404.999817,172.325439 404.941193,147.754074 405.098633,123.184097 
	C405.113007,120.937721 406.510895,118.700218 407.659973,116.565247 
	C409.476776,116.671906 410.899933,116.671906 412.484467,116.671906 
	C412.484467,104.911301 412.484467,93.721008 412.484467,82.132240 
	C410.553223,82.132240 408.923676,82.132240 406.954651,81.910698 
	C406.077301,79.997459 405.058380,78.301407 405.073669,76.614738 
	C405.302155,51.409100 405.667175,26.204695 406.000000,1.000000 
z"/>
<path fill="#9C6CE6" opacity="1.000000" stroke="none" 
	d="
M235.000000,1.000000 
	C240.688034,1.000000 246.376083,1.000000 252.530655,1.428962 
	C252.665817,3.975227 252.027679,6.095761 252.049927,8.209343 
	C252.308655,32.780167 252.666992,57.349945 252.540771,81.978783 
	C248.828232,82.037567 245.573868,82.037567 242.116058,82.037567 
	C242.116058,84.167236 242.116058,85.596352 242.116058,87.314163 
	C245.165344,87.577232 248.018173,87.823357 251.190536,88.097046 
	C251.190536,96.661285 251.320770,104.744263 251.123169,112.819214 
	C251.049347,115.836189 252.002991,117.149689 255.002441,117.318130 
	C255.334747,124.521782 255.910858,131.281540 255.954132,138.044708 
	C256.081543,157.961700 255.997726,177.880035 255.532486,197.864288 
	C249.044601,197.885544 243.020844,197.840393 236.995941,197.381775 
	C236.663208,192.183762 236.071838,187.400711 236.044006,182.614380 
	C235.908463,159.298843 235.923584,135.982422 236.003357,112.342422 
	C238.966141,104.623291 237.094635,100.338860 229.734177,97.654831 
	C227.403198,96.804832 224.732483,96.607155 222.685410,95.349167 
	C221.138519,94.398560 219.235718,92.023956 219.496704,90.669579 
	C219.786942,89.163528 222.426559,86.966125 223.909378,87.065674 
	C227.279816,87.291924 230.568207,88.740707 234.752640,89.939796 
	C237.323196,88.025398 237.323196,88.025398 234.867508,84.037315 
	C234.945572,56.024857 234.972794,28.512428 235.000000,1.000000 
z"/>
<path fill="#AD6BE0" opacity="1.000000" stroke="none" 
	d="
M290.000000,1.000000 
	C296.354401,1.000000 302.708801,1.000000 309.531433,1.434576 
	C309.999390,28.556519 309.999084,55.243885 309.596741,81.996796 
	C308.525879,82.994759 307.289886,83.918724 307.275879,84.860893 
	C307.132202,94.508057 307.101105,104.160027 307.309601,113.804802 
	C307.332153,114.846931 309.064331,115.852097 310.002686,117.350929 
	C310.332916,144.484085 310.663940,171.140732 310.531128,197.861755 
	C304.044250,197.883148 298.021149,197.840164 291.996643,197.383865 
	C291.665161,195.026031 291.052795,193.082260 291.047729,191.136902 
	C290.981964,165.931732 290.964417,140.726105 291.121185,115.521759 
	C291.128510,114.341713 292.884460,113.172539 293.980957,112.336441 
	C295.221283,116.228210 297.130615,117.953926 301.202881,115.740273 
	C296.905823,104.492531 292.669495,93.403763 288.786804,82.083214 
	C289.094727,79.471222 288.983002,77.090164 289.013580,74.710938 
	C289.329224,50.140453 289.667816,25.570269 290.000000,1.000000 
z"/>
<path fill="#A26CE4" opacity="1.000000" stroke="none" 
	d="
M255.996582,197.797852 
	C255.997726,177.880035 256.081543,157.961700 255.954132,138.044708 
	C255.910858,131.281540 255.334747,124.521782 255.375626,117.201340 
	C256.133026,114.811783 256.818665,112.986229 256.848267,111.150093 
	C256.972626,103.435379 256.900818,95.717491 256.900818,87.963203 
	C260.666443,87.739189 263.577515,87.566010 266.312286,87.403328 
	C267.517059,83.735558 266.808350,81.759796 262.988678,81.502808 
	C262.651947,78.302055 262.053589,75.520485 262.043304,72.736740 
	C261.964386,51.439129 261.965668,30.140965 262.044128,8.843348 
	C262.053772,6.227759 262.666656,3.614394 263.000000,0.999999 
	C266.030609,1.000000 269.061188,1.000000 272.492859,1.415437 
	C272.596466,3.277970 272.041901,4.724633 272.039490,6.172218 
	C271.988953,36.191780 271.951660,66.211746 272.137421,96.230240 
	C272.147369,97.843895 274.135559,99.445305 275.103699,101.410736 
	C273.571686,105.595032 272.266174,109.475403 270.662689,113.228477 
	C269.531006,115.877266 270.308777,116.876892 273.002350,117.290039 
	C273.334625,124.497719 273.910919,131.259644 273.954102,138.024963 
	C274.081390,157.947998 273.997314,177.872406 273.532593,197.861633 
	C267.378326,197.883942 261.687469,197.840897 255.996582,197.797852 
z"/>
<path fill="#5671FE" opacity="1.000000" stroke="none" 
	d="
M1.000000,113.000000 
	C1.000000,104.645767 1.000000,96.291534 1.314956,87.240891 
	C1.761216,85.894409 1.916809,85.248177 2.020292,84.593704 
	C5.016466,65.644592 11.855970,48.404293 24.940048,34.021889 
	C25.856653,36.810795 26.918949,39.360878 26.925941,41.913849 
	C27.031946,80.616707 27.043617,119.320114 26.893927,158.022690 
	C26.884619,160.428970 25.353962,162.829391 24.270107,165.035492 
	C13.103380,151.690613 6.361771,136.599701 2.960938,119.926712 
	C2.482689,117.582031 1.662119,115.307175 1.000000,113.000000 
z"/>
<path fill="#CA69D6" opacity="1.000000" stroke="none" 
	d="
M405.531372,1.000000 
	C405.667175,26.204695 405.302155,51.409100 405.073669,76.614738 
	C405.058380,78.301407 406.077301,79.997459 406.879700,82.362686 
	C407.144226,90.536499 407.144226,98.036781 407.144226,105.537064 
	C400.780121,98.967506 395.598083,92.290970 390.720215,85.399155 
	C388.713013,82.563240 386.479706,81.386108 383.157227,82.326401 
	C383.104828,55.530037 383.052399,28.733677 383.000000,1.468657 
	C390.354248,1.000000 397.708496,1.000000 405.531372,1.000000 
z"/>
<path fill="#FEFEFF" opacity="1.000000" stroke="none" 
	d="
M1.000000,113.468658 
	C1.662119,115.307175 2.482689,117.582031 2.960938,119.926712 
	C6.361771,136.599701 13.103380,151.690613 24.423344,165.342590 
	C31.142143,171.470352 37.446693,177.093979 43.941124,182.959106 
	C50.383186,186.334137 56.635365,189.467697 63.174686,192.781693 
	C69.975746,194.373169 76.489655,195.784210 83.334839,197.342834 
	C85.108704,197.705093 86.551308,197.919769 87.995522,198.350830 
	C87.997139,198.567230 88.000000,199.000000 88.000000,199.000000 
	C59.073513,199.000000 30.147030,199.000000 1.000000,199.000000 
	C1.000000,170.646149 1.000000,142.291733 1.000000,113.468658 
z"/>
<path fill="#FEFEFF" opacity="1.000000" stroke="none" 
	d="
M24.594877,33.784412 
	C11.855970,48.404293 5.016466,65.644592 2.020292,84.593704 
	C1.916809,85.248177 1.761216,85.894409 1.314956,86.772247 
	C1.000000,58.409077 1.000000,29.818153 1.000000,1.000000 
	C27.353792,1.000000 53.708237,1.000000 80.343605,1.335710 
	C79.256248,2.096224 77.901337,2.571793 76.517227,2.936517 
	C71.967834,4.135323 67.407860,5.293928 62.480072,6.564817 
	C55.715340,10.093239 49.322483,13.524820 42.602959,17.052834 
	C36.382484,22.694313 30.488682,28.239363 24.594877,33.784412 
z"/>
<path fill="#E768CD" opacity="1.000000" stroke="none" 
	d="
M489.550018,0.999997 
	C493.422150,1.968325 496.844299,2.936655 500.633301,4.492563 
	C501.000336,30.700209 501.000549,56.320278 500.614899,81.996094 
	C498.856323,83.352310 496.799164,84.407829 496.230743,85.996132 
	C493.916718,92.462296 492.058868,99.091698 489.663147,106.859657 
	C488.040802,102.646034 487.064240,99.650337 485.746948,96.812820 
	C484.331390,93.763672 482.595886,90.863075 481.000000,87.435425 
	C481.000000,58.315460 481.000000,29.657730 481.000000,1.000000 
	C483.700012,1.000000 486.400024,1.000000 489.550018,0.999997 
z"/>
<path fill="#B36BDE" opacity="1.000000" stroke="none" 
	d="
M309.998779,81.931252 
	C309.999084,55.243885 309.999390,28.556519 309.999847,1.434576 
	C316.354401,1.000000 322.708801,1.000000 329.531616,1.000000 
	C330.000000,26.745630 330.011963,52.491280 329.974030,78.236855 
	C329.971375,80.021980 329.597290,81.806572 328.695282,83.791702 
	C321.996002,83.305077 315.997406,82.618164 309.998779,81.931252 
z"/>
<path fill="#E168CF" opacity="1.000000" stroke="none" 
	d="
M480.532410,1.000000 
	C481.000000,29.657730 481.000000,58.315460 480.619110,87.496094 
	C478.821075,89.303299 476.875488,90.327019 476.088867,91.922256 
	C473.981018,96.196594 472.369690,100.715775 470.561188,105.137703 
	C470.139374,105.035561 469.717590,104.933411 469.295776,104.831261 
	C467.107727,97.393219 464.919678,89.955177 462.731628,82.517136 
	C462.821106,61.072895 462.849396,39.628109 463.042480,18.184801 
	C463.091492,12.740085 463.664825,7.300089 463.998596,1.428962 
	C469.354919,1.000000 474.709869,1.000000 480.532410,1.000000 
z"/>
<path fill="#966CE8" opacity="1.000000" stroke="none" 
	d="
M234.531738,1.000000 
	C234.972794,28.512428 234.945572,56.024857 234.529724,83.867355 
	C229.090668,80.949547 223.829575,81.057732 218.440063,83.211731 
	C217.626709,81.073486 216.120117,78.939835 216.105881,76.796288 
	C215.940445,51.844166 216.000000,26.890543 216.000000,1.468657 
	C222.021149,1.000000 228.042297,1.000000 234.531738,1.000000 
z"/>
<path fill="#A76BE2" opacity="1.000000" stroke="none" 
	d="
M275.202881,101.052406 
	C274.135559,99.445305 272.147369,97.843895 272.137421,96.230240 
	C271.951660,66.211746 271.988953,36.191780 272.039490,6.172218 
	C272.041901,4.724633 272.596466,3.277970 272.946960,1.415437 
	C278.354919,1.000000 283.709869,1.000000 289.532410,1.000000 
	C289.667816,25.570269 289.329224,50.140453 289.013580,74.710938 
	C288.983002,77.090164 289.094727,79.471222 288.427795,82.015770 
	C284.234833,81.516258 282.235291,82.743736 281.070648,86.299561 
	C279.426544,91.319305 277.187561,96.144203 275.202881,101.052406 
z"/>
<path fill="#856DEE" opacity="1.000000" stroke="none" 
	d="
M178.531464,1.000000 
	C178.999985,26.205664 179.109848,51.412258 178.896378,76.616112 
	C178.858948,81.035515 177.464630,85.443413 175.998413,89.718552 
	C172.548035,75.533768 166.736603,63.015739 156.883774,52.109032 
	C157.310226,49.386440 157.939590,47.114250 157.953705,44.838249 
	C158.044281,30.225965 157.999985,15.612845 158.000000,1.000000 
	C164.687637,1.000000 171.375290,1.000000 178.531464,1.000000 
z"/>
<path fill="#D669D2" opacity="1.000000" stroke="none" 
	d="
M427.165161,84.052391 
	C426.443420,81.263405 425.113831,78.478485 425.095154,75.684814 
	C424.930908,51.103191 425.000000,26.520023 425.000000,1.468657 
	C431.021149,1.000000 437.042297,1.000000 443.531738,1.000000 
	C443.667175,25.581291 443.349731,50.162815 442.976685,74.743500 
	C442.941162,77.082703 442.557617,79.416634 441.587524,81.939850 
	C436.281311,82.768585 431.723236,83.410492 427.165161,84.052391 
z"/>
<path fill="#BE6ADA" opacity="1.000000" stroke="none" 
	d="
M348.999481,81.947937 
	C348.666321,79.340973 348.051880,76.734879 348.043823,74.126907 
	C347.969513,50.063896 348.000000,26.000559 348.000000,1.468657 
	C352.689240,1.000000 357.378510,1.000000 362.533875,1.000000 
	C362.991241,27.738523 362.982452,54.477047 362.494934,81.668579 
	C357.677307,82.063705 353.338379,82.005821 348.999481,81.947937 
z"/>
<path fill="#7E6EF0" opacity="1.000000" stroke="none" 
	d="
M157.531372,1.000000 
	C157.999985,15.612845 158.044281,30.225965 157.953705,44.838249 
	C157.939590,47.114250 157.310226,49.386440 156.598648,51.896980 
	C148.821609,47.248676 141.411255,42.363789 134.000885,36.980221 
	C134.000549,24.654364 134.000275,12.827182 134.000000,1.000000 
	C141.687576,1.000000 149.375168,1.000000 157.531372,1.000000 
z"/>
<path fill="#766EF3" opacity="1.000000" stroke="none" 
	d="
M133.531342,1.000000 
	C134.000275,12.827182 134.000549,24.654364 133.605240,36.872967 
	C124.806061,35.836926 116.402481,34.409462 107.945305,32.567760 
	C107.594482,30.212475 107.062454,28.274061 107.040649,26.329926 
	C106.945946,17.887527 107.000008,9.443460 107.000000,1.000000 
	C115.687569,1.000000 124.375130,1.000000 133.531342,1.000000 
z"/>
<path fill="#6770F8" opacity="1.000000" stroke="none" 
	d="
M62.851944,6.467978 
	C67.407860,5.293928 71.967834,4.135323 76.517227,2.936517 
	C77.901337,2.571793 79.256248,2.096224 80.812263,1.335710 
	C82.388893,1.000000 83.777779,1.000000 85.525795,1.351822 
	C84.721397,3.045990 82.571053,4.376208 82.554382,5.732645 
	C82.445480,14.595557 82.704475,23.468149 83.081024,32.327473 
	C83.155472,34.078945 84.262825,35.786518 84.563187,37.700497 
	C77.663399,41.922009 71.094269,45.957359 64.316925,49.510262 
	C63.739201,46.944805 63.074539,44.865429 63.048847,42.778187 
	C62.899864,30.675812 62.901356,18.571581 62.851944,6.467978 
z"/>
<path fill="#6E6FF6" opacity="1.000000" stroke="none" 
	d="
M84.893845,37.514336 
	C84.262825,35.786518 83.155472,34.078945 83.081024,32.327473 
	C82.704475,23.468149 82.445480,14.595557 82.554382,5.732645 
	C82.571053,4.376208 84.721397,3.045990 85.942459,1.351822 
	C92.687645,1.000000 99.375290,1.000000 106.531464,1.000000 
	C107.000008,9.443460 106.945946,17.887527 107.040649,26.329926 
	C107.062454,28.274061 107.594482,30.212475 107.506508,32.638664 
	C99.712151,34.587318 92.303001,36.050827 84.893845,37.514336 
z"/>
<path fill="#A06CE4" opacity="1.000000" stroke="none" 
	d="
M262.545898,0.999999 
	C262.666656,3.614394 262.053772,6.227759 262.044128,8.843348 
	C261.965668,30.140965 261.964386,51.439129 262.043304,72.736740 
	C262.053589,75.520485 262.651947,78.302055 262.537445,81.561050 
	C259.064270,81.998299 256.031616,81.959152 252.998932,81.919998 
	C252.666992,57.349945 252.308655,32.780167 252.049927,8.209343 
	C252.027679,6.095761 252.665817,3.975227 252.998596,1.428962 
	C256.030609,1.000000 259.061188,1.000000 262.545898,0.999999 
z"/>
<path fill="#FAF6FD" opacity="1.000000" stroke="none" 
	d="
M88.468658,199.000000 
	C88.000000,199.000000 87.997139,198.567230 88.460854,198.287354 
	C95.613815,197.937057 102.303055,197.866653 109.456696,197.869019 
	C117.946327,197.892593 125.971565,197.843414 134.460663,197.865021 
	C142.281937,197.888275 149.639359,197.840759 157.459732,197.870819 
	C164.947678,197.896683 171.972656,197.844971 178.997650,197.793274 
	C185.354431,197.838501 191.711197,197.883728 198.532013,197.861359 
	C205.020493,197.848480 211.044952,197.903183 217.998077,197.948730 
	C224.950180,197.891464 230.973633,197.843353 236.997070,197.795242 
	C243.020844,197.840393 249.044601,197.885544 255.532471,197.864288 
	C261.687469,197.840897 267.378326,197.883942 273.996704,197.930359 
	C280.615448,197.888214 286.306763,197.842697 291.998047,197.797180 
	C298.021149,197.840164 304.044250,197.883148 310.995880,197.929962 
	C318.282379,197.888672 324.640350,197.843552 330.998322,197.798447 
	C339.021027,197.842682 347.043701,197.886917 355.531036,197.866638 
	C364.686218,197.843765 373.376740,197.885422 382.996704,197.930176 
	C390.950348,197.889648 397.974609,197.846008 404.998840,197.802368 
	C411.688507,197.844254 418.378174,197.886124 425.996582,197.930969 
	C432.616913,197.890137 438.308533,197.846359 444.000122,197.802612 
	C450.689392,197.845291 457.378662,197.887970 464.996887,197.933441 
	C471.643311,197.872330 477.360779,197.808456 483.049255,197.840759 
	C483.020325,197.936905 482.958801,198.128082 482.958801,198.128082 
	C482.958801,198.128082 482.983734,198.563843 482.991882,198.781921 
	C351.645782,199.000000 220.291550,199.000000 88.468658,199.000000 
z"/>
<path fill="#ED67CA" opacity="1.000000" stroke="none" 
	d="
M501.000763,81.940346 
	C501.000549,56.320278 501.000336,30.700209 501.000183,4.625878 
	C508.229584,7.189313 515.458862,10.207010 522.819153,13.928139 
	C522.633423,17.082188 522.043579,19.532471 522.040527,21.983480 
	C521.985229,67.121948 521.939941,112.260643 522.049561,157.398911 
	C522.072083,166.681824 522.728271,175.963196 523.092407,185.245270 
	C516.678467,188.211243 510.264465,191.177200 503.295959,193.768219 
	C502.494232,191.438232 502.035553,189.483582 502.031982,187.528107 
	C501.984131,161.457443 502.120789,135.385620 501.896759,109.316795 
	C501.852631,104.181023 500.479279,99.056664 499.776520,93.542603 
	C500.698547,90.351494 501.714996,87.577454 502.329041,84.717033 
	C502.499451,83.923103 501.476318,82.872948 501.000763,81.940346 
z"/>
<path fill="#F467C8" opacity="1.000000" stroke="none" 
	d="
M523.393311,185.062714 
	C522.728271,175.963196 522.072083,166.681824 522.049561,157.398911 
	C521.939941,112.260643 521.985229,67.121948 522.040527,21.983480 
	C522.043579,19.532471 522.633423,17.082188 523.021362,14.196571 
	C530.300476,19.664354 537.508301,25.567135 544.853394,32.242142 
	C544.993774,75.065926 544.978760,117.117508 545.056030,159.168930 
	C545.059692,161.173920 545.879761,163.177399 546.319641,165.181595 
	C540.239990,173.427185 532.580688,179.858414 523.393311,185.062714 
z"/>
<path fill="#FB67C6" opacity="1.000000" stroke="none" 
	d="
M546.591553,164.988586 
	C545.879761,163.177399 545.059692,161.173920 545.056030,159.168930 
	C544.978760,117.117508 544.993774,75.065926 544.980225,32.553658 
	C558.065369,47.090790 566.151001,64.440231 568.895874,84.146614 
	C572.188660,107.786873 568.307434,130.216980 556.433289,151.029358 
	C553.674805,155.864243 550.075745,160.219589 546.591553,164.988586 
z"/>
<path fill="#E869CC" opacity="1.000000" stroke="none" 
	d="
M499.718933,93.927032 
	C500.479279,99.056664 501.852631,104.181023 501.896759,109.316795 
	C502.120789,135.385620 501.984131,161.457443 502.031982,187.528107 
	C502.035553,189.483582 502.494232,191.438232 502.912720,193.795135 
	C496.659149,195.458679 490.234222,196.720337 483.384033,198.055038 
	C482.958801,198.128082 483.020325,197.936905 483.021729,197.393372 
	C483.015411,172.575302 482.921204,148.300247 483.068359,124.026657 
	C483.100250,118.764442 483.998932,113.507484 484.690857,108.571671 
	C485.601105,110.373009 486.182190,111.940575 487.076782,113.302223 
	C487.900024,114.555351 489.060394,115.587006 490.072296,116.716217 
	C491.160004,115.509399 492.732361,114.480515 493.251953,113.065140 
	C495.571808,106.746048 497.591095,100.316605 499.718933,93.927032 
z"/>
<path fill="#CA6AD7" opacity="1.000000" stroke="none" 
	d="
M404.999268,197.349396 
	C397.974609,197.846008 390.950348,197.889648 383.460999,197.866669 
	C383.019165,171.081253 383.042389,144.362457 383.523834,117.200745 
	C385.535431,116.652222 387.088837,116.546631 388.476501,116.452301 
	C388.476501,108.056892 388.476501,100.324448 388.476501,91.503426 
	C395.050232,100.234131 401.158264,108.346367 407.266327,116.458595 
	C406.510895,118.700218 405.113007,120.937721 405.098633,123.184097 
	C404.941193,147.754074 404.999817,172.325439 404.999268,197.349396 
z"/>
<path fill="#F9EFFB" opacity="1.000000" stroke="none" 
	d="
M407.659973,116.565247 
	C401.158264,108.346367 395.050232,100.234131 388.476501,91.503426 
	C388.476501,100.324448 388.476501,108.056892 388.476501,116.452301 
	C387.088837,116.546631 385.535431,116.652222 383.569427,116.713257 
	C383.146729,105.513733 383.136627,94.358772 383.141907,82.765106 
	C386.479706,81.386108 388.713013,82.563240 390.720215,85.399155 
	C395.598083,92.290970 400.780121,98.967506 407.144226,105.537064 
	C407.144226,98.036781 407.144226,90.536499 407.219177,82.584229 
	C408.923676,82.132240 410.553223,82.132240 412.484467,82.132240 
	C412.484467,93.721008 412.484467,104.911301 412.484467,116.671906 
	C410.899933,116.671906 409.476776,116.671906 407.659973,116.565247 
z"/>
<path fill="#FCF8FD" opacity="1.000000" stroke="none" 
	d="
M348.543579,82.006531 
	C353.338379,82.005821 357.677307,82.063705 362.474548,82.147728 
	C362.932922,83.778137 362.932922,85.382401 362.932922,87.670387 
	C360.413544,87.670387 358.183136,87.670387 355.177124,87.778030 
	C354.102661,88.222656 353.803864,88.559631 353.505066,88.896606 
	C353.313782,97.912903 353.122467,106.929184 352.785828,116.379349 
	C351.320862,116.720642 350.001221,116.628052 348.027893,116.489601 
	C348.027893,107.034836 348.027893,97.643990 348.027893,89.145943 
	C344.918121,85.739334 337.398560,90.990105 338.384796,82.065125 
	C341.846527,82.065125 344.967102,82.065125 348.543579,82.006531 
z"/>
<path fill="#B96ADC" opacity="1.000000" stroke="none" 
	d="
M353.840149,88.828911 
	C353.803864,88.559631 354.102661,88.222656 354.744598,87.834534 
	C354.783539,88.109322 354.479401,88.435272 353.840149,88.828911 
z"/>
<path fill="#B36BDE" opacity="1.000000" stroke="none" 
	d="
M330.985931,197.391113 
	C324.640350,197.843552 318.282379,197.888672 311.459656,197.865570 
	C310.663940,171.140732 310.332916,144.484085 310.398193,117.299500 
	C311.494629,115.538734 312.663727,114.355217 312.799591,113.063057 
	C313.104126,110.166573 312.894897,107.216064 312.894897,104.515617 
	C318.258850,102.785103 321.237305,104.263313 323.492188,108.770668 
	C325.009277,111.803215 327.787720,114.204765 330.001831,116.888618 
	C330.001221,140.809402 329.968872,164.730286 330.042847,188.650833 
	C330.051422,191.429413 330.649017,194.206161 330.985931,197.391113 
z"/>
<path fill="#F8F1FC" opacity="1.000000" stroke="none" 
	d="
M330.363312,116.848846 
	C327.787720,114.204765 325.009277,111.803215 323.492188,108.770668 
	C321.237305,104.263313 318.258850,102.785103 312.894897,104.515617 
	C312.894897,107.216064 313.104126,110.166573 312.799591,113.063057 
	C312.663727,114.355217 311.494629,115.538734 310.398987,116.822983 
	C309.064331,115.852097 307.332153,114.846931 307.309601,113.804802 
	C307.101105,104.160027 307.132202,94.508057 307.275879,84.860893 
	C307.289886,83.918724 308.525879,82.994759 309.596741,81.996796 
	C315.997406,82.618164 321.996002,83.305077 328.355042,84.062790 
	C335.057495,91.542114 334.707733,95.741859 326.830322,103.340919 
	C329.141541,107.485100 331.511230,111.734077 334.105713,116.386139 
	C332.590240,116.575722 331.657501,116.692398 330.363312,116.848846 
M326.090271,89.594528 
	C322.005676,88.520546 317.921051,87.446556 313.210388,86.207962 
	C313.210388,91.251373 313.210388,94.756630 313.210388,98.258888 
	C315.823151,98.258888 318.105347,98.284729 320.386841,98.253899 
	C326.495087,98.171356 327.738281,96.556068 326.090271,89.594528 
z"/>
<path fill="#F5F5FE" opacity="1.000000" stroke="none" 
	d="
M84.563187,37.700493 
	C92.303001,36.050827 99.712151,34.587318 107.560104,33.052902 
	C116.402481,34.409462 124.806061,35.836926 133.605286,37.371643 
	C141.411255,42.363789 148.821609,47.248676 156.517075,52.345615 
	C166.736603,63.015739 172.548035,75.533768 175.604553,89.802246 
	C175.938965,96.027657 175.968674,102.031288 175.650238,108.723434 
	C172.433060,124.520836 165.823624,137.664383 154.481750,148.668091 
	C147.124908,153.231659 140.062500,157.603149 132.614655,161.986725 
	C123.821968,163.288193 115.414742,164.577591 106.572021,165.806900 
	C98.773567,164.456100 91.410591,163.165375 83.911209,161.553162 
	C76.979286,156.904480 70.183784,152.577332 63.340530,147.926575 
	C56.047100,139.699738 49.950047,131.063919 46.214691,120.502945 
	C41.624832,105.323273 41.992989,90.620926 47.091637,75.674156 
	C52.999783,66.897003 58.762463,58.444855 64.525139,49.992710 
	C71.094269,45.957359 77.663399,41.922009 84.563187,37.700493 
M133.137756,42.069847 
	C127.092636,40.678207 121.047508,39.286568 114.079735,37.729343 
	C108.388275,38.106590 102.696823,38.483841 96.208405,38.862862 
	C89.472183,41.605907 82.735970,44.348953 75.343330,47.233234 
	C37.356262,74.376007 37.682789,126.424759 76.546135,152.373871 
	C82.031677,154.679413 87.517227,156.984970 93.657898,159.659531 
	C100.829514,160.217667 108.001137,160.775803 116.012596,161.268631 
	C125.595833,160.054001 134.950897,158.248032 142.968353,151.071259 
	C144.562469,150.254654 146.341797,149.673553 147.723526,148.586899 
	C179.705154,123.434875 179.341217,75.718193 147.633896,50.410126 
	C143.008591,47.777683 138.383286,45.145237 133.137756,42.069847 
z"/>
<path fill="#846EEE" opacity="1.000000" stroke="none" 
	d="
M154.776215,148.476028 
	C165.823624,137.664383 172.433060,124.520836 175.606613,109.187592 
	C176.607407,110.993202 177.895966,113.019333 177.909134,115.053711 
	C178.053848,137.430038 177.941925,159.807922 178.045227,182.184708 
	C178.067993,187.113449 178.663254,192.039551 178.996277,197.380066 
	C171.972656,197.844971 164.947678,197.896683 157.460480,197.417816 
	C156.998856,184.442444 157.166092,171.994049 156.897934,159.555008 
	C156.818039,155.848495 155.517487,152.168289 154.776215,148.476028 
z"/>
<path fill="#E268CE" opacity="1.000000" stroke="none" 
	d="
M484.498413,108.248100 
	C483.998932,113.507484 483.100250,118.764442 483.068359,124.026657 
	C482.921204,148.300247 483.015411,172.575302 483.050659,197.297211 
	C477.360779,197.808456 471.643311,197.872330 465.461273,197.870697 
	C464.997803,177.593811 464.998993,157.382416 465.000000,137.171036 
	C465.000275,131.625641 464.909058,126.077759 465.060791,120.536530 
	C465.101227,119.059395 465.884796,117.602615 467.035797,116.187286 
	C470.949371,117.785110 471.752930,115.401497 472.654602,113.220161 
	C474.856415,107.893623 477.042084,102.560402 479.772339,95.921417 
	C481.705872,100.964546 483.102142,104.606323 484.498413,108.248100 
z"/>
<path fill="#D669D2" opacity="1.000000" stroke="none" 
	d="
M444.000061,197.349670 
	C438.308533,197.846359 432.616913,197.890137 426.460846,197.867645 
	C425.997589,172.820084 425.971497,147.838730 426.042908,122.857635 
	C426.049896,120.407379 426.655762,117.958832 427.417114,115.210289 
	C433.083374,117.685478 438.439240,117.645638 443.882294,115.612328 
	C443.921509,142.707123 443.960754,169.801926 444.000061,197.349670 
z"/>
<path fill="#FDF5FC" opacity="1.000000" stroke="none" 
	d="
M484.690857,108.571671 
	C483.102142,104.606323 481.705872,100.964546 479.772339,95.921417 
	C477.042084,102.560402 474.856415,107.893623 472.654602,113.220161 
	C471.752930,115.401497 470.949371,117.785110 467.435852,116.100906 
	C463.709717,104.976074 460.292145,93.988396 456.640778,82.249016 
	C458.845184,82.249016 460.406433,82.249016 462.349670,82.383072 
	C464.919678,89.955177 467.107727,97.393219 469.295776,104.831261 
	C469.717590,104.933411 470.139374,105.035561 470.561188,105.137703 
	C472.369690,100.715775 473.981018,96.196594 476.088867,91.922256 
	C476.875488,90.327019 478.821075,89.303299 480.619141,87.958328 
	C482.595886,90.863075 484.331390,93.763672 485.746948,96.812820 
	C487.064240,99.650337 488.040802,102.646034 489.663147,106.859657 
	C492.058868,99.091698 493.916718,92.462296 496.230743,85.996132 
	C496.799164,84.407829 498.856323,83.352310 500.614899,81.996094 
	C501.476318,82.872948 502.499451,83.923103 502.329041,84.717033 
	C501.714996,87.577454 500.698547,90.351494 499.776520,93.542595 
	C497.591095,100.316605 495.571808,106.746048 493.251953,113.065140 
	C492.732361,114.480515 491.160004,115.509399 490.072296,116.716217 
	C489.060394,115.587006 487.900024,114.555351 487.076782,113.302223 
	C486.182190,111.940575 485.601105,110.373009 484.690857,108.571671 
z"/>
<path fill="#FDF8FD" opacity="1.000000" stroke="none" 
	d="
M444.114868,115.395203 
	C438.439240,117.645638 433.083374,117.685478 427.488098,114.772850 
	C416.863159,104.623344 416.715302,92.890900 426.956116,84.324051 
	C431.723236,83.410492 436.281311,82.768585 441.268250,82.138000 
	C452.063873,88.162697 455.869232,96.201721 451.918396,105.839462 
	C450.462799,109.390167 446.931824,112.090096 444.114868,115.395203 
M447.847443,100.282745 
	C447.727448,99.130463 447.733337,97.948128 447.466736,96.830826 
	C445.903931,90.281914 441.398804,86.592224 435.556549,86.994041 
	C429.709808,87.396164 425.508087,91.939552 425.046631,98.358620 
	C424.577515,104.883842 428.158875,110.134140 434.052917,111.561974 
	C440.496399,113.122902 445.332672,109.420494 447.847443,100.282745 
z"/>
<path fill="#966CE8" opacity="1.000000" stroke="none" 
	d="
M236.995941,197.381775 
	C230.973633,197.843353 224.950180,197.891464 218.461395,197.879410 
	C217.997375,176.906754 217.934982,155.993927 218.039993,135.081940 
	C218.070297,129.045105 218.581970,123.010689 219.334671,116.631897 
	C225.773315,117.808105 231.302383,117.338272 235.885376,112.666313 
	C235.923584,135.982422 235.908463,159.298843 236.044006,182.614380 
	C236.071838,187.400711 236.663208,192.183762 236.995941,197.381775 
z"/>
<path fill="#F9F7FE" opacity="1.000000" stroke="none" 
	d="
M236.003357,112.342422 
	C231.302383,117.338272 225.773315,117.808105 219.395966,116.234070 
	C216.703766,114.485298 214.411987,112.791092 211.181381,110.402863 
	C213.392517,108.938889 214.816193,107.996292 216.719482,107.469040 
	C219.864975,111.372604 223.451126,112.993454 227.633926,111.785866 
	C229.334961,111.294762 231.360931,109.402695 231.762955,107.781914 
	C232.055618,106.601974 230.248947,104.063171 228.816422,103.456284 
	C225.062302,101.865860 221.000534,101.001602 217.061386,99.847939 
	C212.343842,92.065704 212.516052,88.986542 218.200729,83.483154 
	C223.829575,81.057732 229.090668,80.949547 234.478867,84.367386 
	C237.323196,88.025398 237.323196,88.025398 234.752640,89.939796 
	C230.568207,88.740707 227.279816,87.291924 223.909378,87.065674 
	C222.426559,86.966125 219.786942,89.163528 219.496704,90.669579 
	C219.235718,92.023956 221.138519,94.398560 222.685410,95.349167 
	C224.732483,96.607155 227.403198,96.804832 229.734177,97.654831 
	C237.094635,100.338860 238.966141,104.623291 236.003357,112.342422 
z"/>
<path fill="#9870E9" opacity="1.000000" stroke="none" 
	d="
M217.012604,100.221619 
	C221.000534,101.001602 225.062302,101.865860 228.816422,103.456284 
	C230.248947,104.063171 232.055618,106.601974 231.762955,107.781914 
	C231.360931,109.402695 229.334961,111.294762 227.633926,111.785866 
	C223.451126,112.993454 219.864975,111.372604 217.060684,107.579147 
	C216.936111,105.047707 216.949966,102.821503 217.012604,100.221619 
z"/>
<path fill="#F4EFFC" opacity="1.000000" stroke="none" 
	d="
M252.540771,81.978783 
	C256.031616,81.959152 259.064270,81.998299 262.548187,81.979210 
	C266.808350,81.759796 267.517059,83.735558 266.312286,87.403328 
	C263.577515,87.566010 260.666443,87.739189 256.900818,87.963203 
	C256.900818,95.717491 256.972626,103.435379 256.848267,111.150093 
	C256.818665,112.986229 256.133026,114.811783 255.375946,116.759003 
	C252.002991,117.149689 251.049347,115.836189 251.123169,112.819214 
	C251.320770,104.744263 251.190536,96.661285 251.190536,88.097046 
	C248.018173,87.823357 245.165344,87.577232 242.116058,87.314163 
	C242.116058,85.596352 242.116058,84.167236 242.116058,82.037567 
	C245.573868,82.037567 248.828232,82.037567 252.540771,81.978783 
z"/>
<path fill="#A76BE2" opacity="1.000000" stroke="none" 
	d="
M291.996643,197.383865 
	C286.306763,197.842697 280.615448,197.888214 274.460083,197.864990 
	C273.997314,177.872406 274.081390,157.947998 273.954102,138.024963 
	C273.910919,131.259644 273.334625,124.497719 273.343933,117.222580 
	C274.594299,115.456413 275.949005,114.322449 276.326477,112.924576 
	C277.413147,108.900742 279.748962,107.329437 283.833649,107.982101 
	C285.282471,108.213593 286.815857,108.163216 288.281342,107.991524 
	C291.424561,107.623260 293.373566,108.729538 293.826019,111.998299 
	C292.884460,113.172539 291.128510,114.341713 291.121185,115.521759 
	C290.964417,140.726105 290.981964,165.931732 291.047729,191.136902 
	C291.052795,193.082260 291.665161,195.026031 291.996643,197.383865 
z"/>
<path fill="#FAF6FD" opacity="1.000000" stroke="none" 
	d="
M293.980957,112.336441 
	C293.373566,108.729538 291.424561,107.623260 288.281342,107.991524 
	C286.815857,108.163216 285.282471,108.213593 283.833649,107.982101 
	C279.748962,107.329437 277.413147,108.900742 276.326477,112.924576 
	C275.949005,114.322449 274.594299,115.456413 273.344330,116.778374 
	C270.308777,116.876892 269.531006,115.877266 270.662689,113.228477 
	C272.266174,109.475403 273.571686,105.595032 275.103699,101.410736 
	C277.187561,96.144203 279.426544,91.319305 281.070648,86.299561 
	C282.235291,82.743736 284.234833,81.516258 288.074158,82.247559 
	C292.669495,93.403763 296.905823,104.492531 301.202881,115.740273 
	C297.130615,117.953926 295.221283,116.228210 293.980957,112.336441 
M284.608276,102.940514 
	C286.334656,102.940514 288.061005,102.940514 290.510498,102.940514 
	C288.689056,97.894714 287.194611,93.754745 285.425354,88.853432 
	C283.838226,93.069893 282.351685,96.554764 281.328278,100.170731 
	C281.146393,100.813431 282.889191,102.000885 284.608276,102.940514 
z"/>
<path fill="#5C70FC" opacity="1.000000" stroke="none" 
	d="
M46.946163,75.999168 
	C41.992989,90.620926 41.624832,105.323273 45.839645,120.691406 
	C45.005714,123.264839 44.085995,125.254509 44.065121,127.253563 
	C43.872093,145.740646 43.834209,164.229370 43.751240,182.717606 
	C37.446693,177.093979 31.142143,171.470352 24.684357,165.539627 
	C25.353962,162.829391 26.884619,160.428970 26.893927,158.022690 
	C27.043617,119.320114 27.031946,80.616707 26.925941,41.913849 
	C26.918949,39.360878 25.856653,36.810795 24.940048,34.021889 
	C30.488682,28.239363 36.382484,22.694313 42.911644,17.342731 
	C43.698051,19.336748 43.975838,21.136993 43.980156,22.937891 
	C44.015610,37.720654 43.843685,52.506615 44.133499,67.283775 
	C44.190815,70.206169 45.964176,73.094910 46.946163,75.999168 
z"/>
<path fill="#6270FA" opacity="1.000000" stroke="none" 
	d="
M43.941124,182.959106 
	C43.834209,164.229370 43.872093,145.740646 44.065121,127.253563 
	C44.085995,125.254509 45.005714,123.264839 45.883545,121.082352 
	C49.950047,131.063919 56.047100,139.699738 63.217033,148.450470 
	C63.056709,163.732376 62.972126,178.166824 62.887543,192.601257 
	C56.635365,189.467697 50.383186,186.334137 43.941124,182.959106 
z"/>
<path fill="#6770F8" opacity="1.000000" stroke="none" 
	d="
M63.174683,192.781693 
	C62.972126,178.166824 63.056709,163.732376 63.264786,148.774048 
	C70.183784,152.577332 76.979286,156.904480 83.896286,162.030945 
	C83.679710,174.285263 83.341644,185.740265 83.003571,197.195267 
	C76.489655,195.784210 69.975746,194.373169 63.174683,192.781693 
z"/>
<path fill="#6E6FF5" opacity="1.000000" stroke="none" 
	d="
M83.334839,197.342834 
	C83.341644,185.740265 83.679710,174.285263 84.032700,162.352463 
	C91.410591,163.165375 98.773567,164.456100 106.571548,166.247452 
	C107.668472,177.097473 108.330383,187.446854 108.992302,197.796234 
	C102.303055,197.866653 95.613815,197.937057 88.459236,198.070953 
	C86.551308,197.919769 85.108704,197.705093 83.334839,197.342834 
z"/>
<path fill="#6270FA" opacity="1.000000" stroke="none" 
	d="
M47.091637,75.674156 
	C45.964176,73.094910 44.190815,70.206169 44.133499,67.283775 
	C43.843685,52.506615 44.015610,37.720654 43.980156,22.937891 
	C43.975838,21.136993 43.698051,19.336748 43.238312,17.246302 
	C49.322483,13.524820 55.715340,10.093239 62.480072,6.564818 
	C62.901356,18.571581 62.899864,30.675812 63.048847,42.778187 
	C63.074539,44.865429 63.739201,46.944805 64.316925,49.510262 
	C58.762463,58.444855 52.999783,66.897003 47.091637,75.674156 
z"/>
<path fill="#7D6EF0" opacity="1.000000" stroke="none" 
	d="
M154.481750,148.668091 
	C155.517487,152.168289 156.818039,155.848495 156.897934,159.555008 
	C157.166092,171.994049 156.998856,184.442444 156.997528,197.340256 
	C149.639359,197.840759 142.281937,197.888275 134.448517,197.457336 
	C133.648346,194.220398 133.081802,191.465195 133.044647,188.702866 
	C132.924866,179.794861 133.000061,170.884247 133.000107,161.974640 
	C140.062500,157.603149 147.124908,153.231659 154.481750,148.668091 
z"/>
<path fill="#766FF3" opacity="1.000000" stroke="none" 
	d="
M132.614655,161.986725 
	C133.000061,170.884247 132.924866,179.794861 133.044647,188.702866 
	C133.081802,191.465195 133.648346,194.220398 133.984680,197.386551 
	C125.971565,197.843414 117.946327,197.892593 109.456696,197.869019 
	C108.330383,187.446854 107.668472,177.097473 107.007034,166.307526 
	C115.414742,164.577591 123.821968,163.288193 132.614655,161.986725 
z"/>
<path fill="#B672E0" opacity="1.000000" stroke="none" 
	d="
M326.337158,89.925171 
	C327.738281,96.556068 326.495087,98.171356 320.386841,98.253899 
	C318.105347,98.284729 315.823151,98.258888 313.210388,98.258888 
	C313.210388,94.756630 313.210388,91.251373 313.210388,86.207962 
	C317.921051,87.446556 322.005676,88.520546 326.337158,89.925171 
z"/>
<path fill="#6670F9" opacity="1.000000" stroke="none" 
	d="
M76.000214,151.941284 
	C37.682789,126.424759 37.356262,74.376007 75.671875,47.624496 
	C76.000351,82.657600 76.000282,117.299446 76.000214,151.941284 
z"/>
<path fill="#816FEF" opacity="1.000000" stroke="none" 
	d="
M148.008118,50.966518 
	C179.341217,75.718193 179.705154,123.434875 147.723526,148.586899 
	C146.341797,149.673553 144.562469,150.254654 142.275940,150.875549 
	C141.055740,148.646515 140.063065,146.607376 140.088440,144.580994 
	C140.160889,138.796127 140.912994,133.015854 140.899994,127.234886 
	C140.885483,120.786400 140.323746,114.339134 140.247223,107.662857 
	C145.266769,105.173904 148.382919,102.040558 146.785522,95.981239 
	C147.445145,93.978836 147.953674,92.218170 147.963120,90.454842 
	C148.033661,77.292366 148.005402,64.129356 148.008118,50.966518 
z"/>
<path fill="#6B6FF7" opacity="1.000000" stroke="none" 
	d="
M76.273178,152.157578 
	C76.000282,117.299446 76.000351,82.657600 76.000084,47.553879 
	C82.735970,44.348953 89.472183,41.605907 96.605576,39.342899 
	C97.001823,47.470596 97.152580,55.123234 96.901688,62.762684 
	C96.832108,64.881592 95.570358,66.961357 94.467850,69.002502 
	C85.196968,66.292236 80.115356,69.979355 80.097931,79.150490 
	C80.072601,92.481438 80.081703,105.812485 80.093834,119.143478 
	C80.103195,129.428360 82.642464,131.706055 92.996773,131.256805 
	C92.999916,140.923264 93.001343,150.106888 93.002769,159.290512 
	C87.517227,156.984970 82.031677,154.679413 76.273178,152.157578 
z"/>
<path fill="#786FF2" opacity="1.000000" stroke="none" 
	d="
M140.000183,107.891342 
	C140.323746,114.339134 140.885483,120.786400 140.899994,127.234886 
	C140.912994,133.015854 140.160889,138.796127 140.088440,144.580994 
	C140.063065,146.607376 141.055740,148.646515 141.922043,150.910385 
	C134.950897,158.248032 125.595833,160.054001 115.368668,160.946045 
	C114.149872,158.852997 113.108681,157.090561 113.077957,155.310684 
	C112.913139,145.762283 113.068115,136.208572 112.934448,126.659210 
	C112.911507,125.020027 112.028969,123.392891 111.812515,121.513000 
	C121.387756,116.807655 130.693970,112.349503 140.000183,107.891342 
z"/>
<path fill="#776FF3" opacity="1.000000" stroke="none" 
	d="
M115.002388,37.894928 
	C121.047508,39.286568 127.092636,40.678207 133.033325,42.571274 
	C132.619278,44.821388 132.057785,46.567791 132.041885,48.319149 
	C131.954300,57.966789 132.175491,67.620743 131.895370,77.261047 
	C131.808914,80.236160 130.480652,83.175179 129.376373,86.095963 
	C123.873642,83.451797 118.715508,80.842392 113.916214,77.967407 
	C114.516701,75.925514 114.957718,74.150314 114.967628,72.372696 
	C115.031631,60.880402 115.001595,49.387577 115.002388,37.894928 
z"/>
<path fill="#7C6FF1" opacity="1.000000" stroke="none" 
	d="
M129.720978,86.130730 
	C130.480652,83.175179 131.808914,80.236160 131.895370,77.261047 
	C132.175491,67.620743 131.954300,57.966789 132.041885,48.319149 
	C132.057785,46.567791 132.619278,44.821388 133.343445,42.792747 
	C138.383286,45.145237 143.008591,47.777683 147.821014,50.688324 
	C148.005402,64.129356 148.033661,77.292366 147.963120,90.454842 
	C147.953674,92.218170 147.445145,93.978836 146.580048,95.742798 
	C140.568573,92.540154 135.144775,89.335442 129.720978,86.130730 
z"/>
<path fill="#706FF5" opacity="1.000000" stroke="none" 
	d="
M111.543503,121.760193 
	C112.028969,123.392891 112.911507,125.020027 112.934448,126.659210 
	C113.068115,136.208572 112.913139,145.762283 113.077957,155.310684 
	C113.108681,157.090561 114.149872,158.852997 114.948746,160.978714 
	C108.001137,160.775803 100.829514,160.217667 93.330338,159.475021 
	C93.001343,150.106888 92.999916,140.923264 93.255280,131.044739 
	C99.522552,127.486610 105.533028,124.623398 111.543503,121.760193 
z"/>
<path fill="#726FF4" opacity="1.000000" stroke="none" 
	d="
M114.541061,37.812134 
	C115.001595,49.387577 115.031631,60.880402 114.967628,72.372696 
	C114.957718,74.150314 114.516701,75.925514 113.570633,77.923210 
	C106.862663,75.116089 100.859108,72.087585 94.855560,69.059082 
	C95.570358,66.961357 96.832108,64.881592 96.901688,62.762684 
	C97.152580,55.123234 97.001823,47.470596 97.004059,39.342010 
	C102.696823,38.483841 108.388275,38.106590 114.541061,37.812134 
z"/>
<path fill="#D76CD3" opacity="1.000000" stroke="none" 
	d="
M447.802856,100.676285 
	C445.332672,109.420494 440.496399,113.122902 434.052917,111.561974 
	C428.158875,110.134140 424.577515,104.883842 425.046631,98.358620 
	C425.508087,91.939552 429.709808,87.396164 435.556549,86.994041 
	C441.398804,86.592224 445.903931,90.281914 447.466736,96.830826 
	C447.733337,97.948128 447.727448,99.130463 447.802856,100.676285 
z"/>
<path fill="#AD73E3" opacity="1.000000" stroke="none" 
	d="
M284.175781,102.938660 
	C282.889191,102.000885 281.146393,100.813431 281.328278,100.170731 
	C282.351685,96.554764 283.838226,93.069893 285.425354,88.853432 
	C287.194611,93.754745 288.689056,97.894714 290.510498,102.940514 
	C288.061005,102.940514 286.334656,102.940514 284.175781,102.938660 
z"/>
<path fill="#FDFDFF" opacity="1.000000" stroke="none" 
	d="
M94.467850,69.002502 
	C100.859108,72.087585 106.862663,75.116089 113.211792,78.188782 
	C118.715508,80.842392 123.873642,83.451797 129.376373,86.095963 
	C135.144775,89.335442 140.568573,92.540154 146.197845,95.983299 
	C148.382919,102.040558 145.266769,105.173904 140.247223,107.662857 
	C130.693970,112.349503 121.387756,116.807655 111.812515,121.513000 
	C105.533028,124.623398 99.522552,127.486610 93.253571,130.561905 
	C82.642464,131.706055 80.103195,129.428360 80.093834,119.143478 
	C80.081703,105.812485 80.072601,92.481438 80.097931,79.150490 
	C80.115356,69.979355 85.196968,66.292236 94.467850,69.002502 
z"/>
</svg>